<?xml version="1.0" standalone="no"?>
<!DOCTYPE svg PUBLIC "-//W3C//DTD SVG 20010904//EN"
"http://www.w3.org/TR/2001/REC-SVG-20010904/DTD/svg10.dtd">
<svg
  version="1.0" xmlns="http://www.w3.org/2000/svg"
  width="512.000000pt" height="512.000000pt" 
  viewBox="0 0 512.000000 512.000000"
  preserveAspectRatio="xMidYMid meet"
>
  <style>
    @media (prefers-color-scheme: dark) {
      :root {
        fill: white;
      }
    }
  </style>

  <g 
    transform="translate(0.000000,512.000000) scale(0.100000,-0.100000)"
    fill="#000000" 
    stroke="none"
  >
    <path d="M2730 5103 c-89 -10 -265 -45 -363 -73 -357 -103 -663 -284 -927
    -549 -183 -183 -307 -358 -415 -583 -77 -161 -117 -273 -156 -435 -113 -471
    -61 -981 144 -1415 252 -534 715 -945 1267 -1128 920 -304 1925 38 2467 840
    183 270 304 592 348 924 22 160 16 490 -10 631 -83 451 -265 815 -565 1129
    -344 360 -789 587 -1278 651 -103 14 -415 19 -512 8z m560 -208 c193 -34 341
    -82 518 -166 598 -284 1011 -854 1097 -1512 8 -65 15 -141 15 -170 l0 -51
    -220 -221 c-209 -210 -220 -223 -220 -259 0 -52 44 -96 96 -96 35 0 48 10 184
    146 l147 145 -9 -58 c-124 -800 -746 -1451 -1543 -1612 -489 -99 -997 -10
    -1422 250 -180 110 -384 292 -515 459 -432 554 -536 1296 -273 1950 254 632
    836 1094 1508 1198 l58 9 -145 -147 c-136 -136 -146 -149 -146 -184 0 -52 44
    -96 96 -96 36 0 49 11 259 221 l220 221 105 -6 c58 -3 143 -12 190 -21z"/>
    <path d="M2803 4290 c-402 -51 -771 -295 -980 -647 -210 -355 -242 -787 -86
    -1174 48 -120 87 -149 158 -117 27 12 55 55 55 84 0 9 -16 55 -35 103 -73 183
    -100 390 -75 573 105 773 918 1218 1617 883 127 -60 203 -114 306 -214 168
    -164 273 -355 323 -593 21 -100 24 -322 5 -418 -47 -240 -156 -446 -323 -611
    -322 -320 -802 -415 -1229 -244 -97 39 -109 41 -148 20 -52 -27 -65 -110 -22
    -149 25 -23 173 -81 267 -105 239 -60 525 -51 749 24 451 152 779 518 886 990
    32 144 32 395 0 545 -111 516 -512 918 -1027 1030 -113 24 -327 34 -441 20z"/>
    <path d="M312 1547 c-294 -294 -304 -305 -304 -343 0 -30 6 -44 31 -66 35 -31
    68 -35 109 -14 46 25 590 578 597 609 9 33 -10 82 -39 102 -11 8 -36 15 -55
    15 -33 0 -57 -21 -339 -303z"/>
    <path d="M563 697 l-453 -452 0 -43 c0 -59 33 -92 92 -92 l42 0 448 447 c320
    319 449 455 454 476 8 39 -13 85 -47 102 -67 35 -50 48 -536 -438z"/>
    <path d="M1694 721 c-46 -34 -544 -535 -568 -571 -24 -36 -20 -75 12 -111 22
    -25 36 -31 66 -31 38 0 49 10 343 304 274 275 303 307 303 336 0 44 -14 69
    -50 87 -42 21 -62 19 -106 -14z"/>
  </g>
</svg>
